<svg xmlns="http://www.w3.org/2000/svg" viewBox="0 0 512 512">
    <!--! Font Awesome Free 6.4.0 by @fontawesome - https://fontawesome.com License - https://fontawesome.com/license (Commercial License) Copyright 2023 Fonticons, Inc. -->
    <path fill="#1877F2" d="M512 256C512 114.6 397.4 0 256 0S0 114.6 0 256c0 120.3 82.7 220.8 196.2 246.4V322.3h-59.1v-66.3h59.1v-50.5c0-58.4 34.7-90.7 88.1-90.7 25.5 0 51.9 4.6 51.9 4.6v57h-29.2c-28.7 0-37.7 17.8-37.7 36.2v43.4h63.2l-10.1 66.3h-53.1v180.1C429.3 476.8 512 376.3 512 256z"/>
    <path fill="#FFFFFF" d="M344.2 322.3l10.1-66.3h-63.2v-43.4c0-18.4 9-36.2 37.7-36.2h29.2v-57s-26.4-4.6-51.9-4.6c-53.4 0-88.1 32.3-88.1 90.7v50.5h-59.1v66.3h59.1v180.1z"/>
</svg>
